<?xml version="1.0" standalone="no"?>
<!DOCTYPE svg PUBLIC "-//W3C//DTD SVG 20010904//EN"
 "http://www.w3.org/TR/2001/REC-SVG-20010904/DTD/svg10.dtd">
<svg version="1.0" xmlns="http://www.w3.org/2000/svg"
 width="700.000000pt" height="700.000000pt" viewBox="0 0 700.000000 700.000000"
 preserveAspectRatio="xMidYMid meet">
<metadata>
Created by potrace 1.11, written by Peter Selinger 2001-2013
</metadata>
<g transform="translate(0.000000,700.000000) scale(0.100000,-0.100000)"
fill="#000000" stroke="none">
<path d="M2349 6266 c-2 -2 -33 -7 -69 -10 -546 -56 -1079 -399 -1370 -881
-120 -198 -215 -447 -246 -640 -3 -22 -7 -42 -9 -45 -18 -29 -26 -398 -12
-515 17 -138 99 -459 146 -568 38 -89 67 -81 -299 -82 -362 -2 -368 -3 -430
-69 -43 -45 -59 -89 -56 -153 5 -79 42 -136 115 -174 l43 -22 1248 0 c966 0
1257 2 1292 12 77 22 115 70 182 228 14 35 38 89 52 120 44 99 60 136 89 207
l29 69 13 -49 c7 -27 15 -58 17 -69 2 -11 11 -47 19 -80 9 -33 18 -71 21 -85
3 -14 20 -90 39 -170 19 -80 67 -279 106 -443 39 -164 78 -314 87 -333 59
-125 244 -151 335 -48 19 23 371 594 595 966 l32 53 338 0 c247 1 349 4 376
14 49 16 115 92 124 140 4 20 8 43 9 52 5 25 -30 118 -55 144 -12 13 -43 33
-67 45 -44 21 -58 21 -464 21 -405 -1 -420 -2 -464 -22 -59 -28 -72 -45 -201
-255 -59 -99 -117 -193 -129 -211 -11 -17 -51 -84 -90 -147 l-70 -116 -27 113
c-29 120 -186 779 -193 812 -2 11 -14 61 -26 110 -11 50 -22 97 -24 105 -42
182 -54 216 -93 256 -68 72 -185 83 -264 25 -22 -16 -47 -39 -54 -50 -8 -11
-62 -129 -120 -263 -58 -134 -114 -261 -124 -283 -10 -22 -45 -103 -78 -180
-33 -77 -73 -169 -90 -205 l-30 -65 -607 0 -607 0 -28 51 c-43 81 -97 213
-120 294 -31 108 -61 222 -66 245 -55 322 -19 610 113 895 165 357 477 639
844 763 195 66 311 81 584 76 58 -1 275 -44 357 -70 243 -79 439 -201 628
-393 107 -109 139 -127 215 -127 73 0 112 20 187 99 182 191 349 305 579 395
79 32 244 74 325 85 118 15 451 6 506 -13 7 -2 24 -7 38 -9 158 -30 387 -136
540 -250 75 -57 198 -175 270 -261 83 -98 186 -288 238 -437 58 -163 77 -289
77 -493 -1 -134 -4 -171 -31 -300 -9 -44 -65 -247 -74 -270 -5 -11 -12 -31
-16 -45 -3 -14 -19 -51 -35 -82 -15 -32 -26 -58 -23 -58 3 0 -3 -12 -14 -27
-10 -16 -21 -35 -25 -44 -20 -57 -205 -326 -326 -475 -136 -168 -472 -519
-646 -675 -34 -30 -97 -86 -140 -125 -44 -39 -96 -84 -115 -100 -19 -15 -53
-44 -76 -64 -22 -19 -60 -51 -83 -70 -24 -19 -49 -40 -55 -45 -6 -6 -74 -60
-151 -121 -130 -104 -239 -185 -497 -375 -124 -91 -444 -309 -452 -309 -6 0
-80 50 -210 140 -191 132 -473 338 -621 452 -115 89 -334 264 -415 332 -118
98 -151 116 -221 116 -163 0 -262 -181 -172 -316 26 -40 204 -191 463 -392 80
-62 152 -119 160 -126 62 -50 399 -293 555 -400 399 -274 417 -283 518 -255
21 6 120 65 220 132 261 173 445 303 681 480 233 174 550 430 721 582 12 11
40 35 61 53 227 195 569 542 756 765 199 238 355 470 456 679 46 95 99 228
107 271 2 10 15 55 29 100 70 231 95 397 91 622 -4 191 -7 215 -60 456 -13 62
-75 224 -125 326 -279 580 -832 977 -1465 1050 -85 10 -357 10 -440 1 -237
-27 -465 -96 -672 -203 -151 -78 -240 -137 -350 -232 -33 -29 -64 -53 -68 -53
-4 0 -37 26 -73 58 -224 196 -579 359 -897 411 -33 6 -76 13 -95 16 -38 7
-395 16 -401 11z"/>
</g>
</svg>
